<?xml version="1.0" encoding="UTF-8"?>
<svg width="41px" height="43px" viewBox="0 0 41 43" version="1.1" xmlns="http://www.w3.org/2000/svg" xmlns:xlink="http://www.w3.org/1999/xlink">
    <!-- Generator: Sketch 51.3 (57544) - http://www.bohemiancoding.com/sketch -->
    <title>Group</title>
    <desc>Created with Sketch.</desc>
    <defs></defs>
    <g id="Page-1" stroke="none" stroke-width="1" fill="none" fill-rule="evenodd">
        <g id="Board-Report-Copy-4" transform="translate(-20.000000, -14.000000)">
            <g id="Group" transform="translate(20.000000, 14.000000)">
                <path d="M39.3424162,26.7117384 L39.3065654,26.7571509 C39.2956788,26.7743892 37.8704683,28.5860702 34.7715318,30.3545629 L34.278067,30.6376033 L34.278067,35.9792264 L6.72343465,35.9792264 L6.72343465,24.9729028 C7.51740808,23.8336976 8.4016655,22.8405539 9.39910636,22.027392 C12.0749658,19.8429577 15.7077227,18.6134835 20.6643319,18.7423068 C22.0003846,18.7788221 22.8987195,18.7187664 22.9829971,18.0624167 C23.0712163,17.4056962 21.1379004,16.5932757 15.6202543,16.2257124 C19.8849991,15.7435984 24.0585214,16.0631542 27.4318761,20.4151553 C27.907134,21.0286875 28.5620213,21.3315611 29.0479781,21.320069 C29.1684819,21.3163618 29.2713418,21.2950458 29.3621889,21.2514868 C29.4246932,21.2253515 29.4795017,21.1888361 29.5215467,21.1445357 C25.165204,11.3126352 13.0059606,11.0012352 5.10977279,16.9091243 C3.9088645,17.8060677 2.81607175,18.8544479 1.85298009,20.0270173 C1.7925405,20.0981945 1.74786777,20.1638109 1.69118219,20.2331345 L1.69118219,41.2819244 C2.54934923,41.2789586 38.4874401,41.2789586 39.3454194,41.2789586 C39.3424162,40.9143611 39.3454194,34.3693993 39.3424162,26.7117384 M40.9971845,24.5664145 L40.2285506,25.562524 L40.2285506,25.5938493 C40.2315538,25.5894007 40.234557,25.5847668 40.2392496,25.580689 L40.2392496,42.2090809 L0.798478252,42.2098224 L0.798478252,21.4742861 C0.805047772,21.4568626 0.812931196,21.4444436 0.820439219,21.4277615 C0.43621614,22.0375866 0.174749237,22.5834635 0.00375401153,23.04352 L0,25.1330514 L0,43 L41,42.9983318 L40.9971845,24.5664145" id="Fill-1" fill="#628943"></path>
                <path d="M1.69129834,1.63371662 C1.69129834,2.00310441 1.65995019,8.60188202 1.65995019,16.2293509 C2.63380765,15.2006596 4.09909898,13.9178058 6.22814512,12.6330995 L6.72389638,12.3500381 L6.72389638,7.01521881 C8.4427886,7.01447781 32.5609657,7.01447781 34.2811719,7.01447781 L34.2811719,18.0290512 C33.4860176,19.1692628 32.6007609,20.1651649 31.6032516,20.9800781 C28.9217647,23.1595401 25.2927002,24.3907093 20.3402558,24.2627018 C19.001108,24.2262076 18.1027113,24.2893777 18.0148614,24.9420122 C17.9324552,25.5983517 19.8659039,26.4104861 25.3801747,26.7778362 C21.1172019,27.2568918 16.9398264,26.9397444 13.567554,22.5913795 C13.0909495,21.9767211 12.4303858,21.6762462 11.950027,21.6849529 C11.8330815,21.6879169 11.7232691,21.7105174 11.634293,21.7518281 C11.5723475,21.7809123 11.5205386,21.8129605 11.4749242,21.8624221 C15.5486819,31.0417273 26.4309947,31.9146236 34.2811719,27.1757524 L34.2811719,27.1966856 C34.3958648,27.1188808 34.5300799,27.0273675 34.6718036,26.9297409 C35.0858995,26.6665012 35.4939886,26.3906644 35.8879992,26.0953765 C37.170833,25.1363391 38.3370968,24.0020555 39.3451181,22.7255002 L39.3451181,1.63297562 C38.4900832,1.63371662 2.54933659,1.63519862 1.69129834,1.63371662 M0,0 L0,18.3812108 C0.00750853867,18.3726893 0.23877153,17.9325361 0.789898268,17.233404 L0.789898268,15.8377332 L0.798345374,15.8377332 L0.798345374,0.710432389 L40.2358185,0.708209393 L40.2416376,21.4674699 C40.5134467,21.0504729 40.772679,20.6219905 41,20.1659059 L41,0 L0,0" id="Fill-2" fill="#676A55"></path>
            </g>
        </g>
    </g>
</svg>